<svg width="96" height="96" viewBox="0 0 96 96" fill="none" xmlns="http://www.w3.org/2000/svg">
<circle cx="47.7188" cy="47.9981" r="47.4141" fill="#1D0605" fill-opacity="0.2"/>
<g clip-path="url(#clip0_1010_1235)">
<path d="M60.9202 20.498C61.621 20.7606 62.3781 20.9285 63.0124 21.3029C64.69 22.2929 65.593 23.8009 65.7014 25.7521C65.7101 25.9128 65.7159 26.0735 65.7159 26.2356C65.7159 40.7367 65.7144 55.2364 65.7188 69.7375C65.7188 71.947 64.8114 73.6386 62.8968 74.7749C61.975 75.3216 60.9578 75.4995 59.8914 75.4995C51.7768 75.4923 43.6622 75.498 35.549 75.4909C35.1011 75.4909 34.6473 75.4593 34.2052 75.3833C31.8009 74.9744 29.8719 72.8021 29.7462 70.3803C29.7332 70.1306 29.726 69.8795 29.726 69.6284C29.7231 55.2005 29.7289 40.7712 29.7188 26.3418C29.7173 23.8812 30.7605 22.0777 32.9958 20.9959C33.4726 20.7649 34.0101 20.6602 34.5202 20.498C43.3197 20.498 52.1192 20.498 60.9202 20.498ZM60.1284 58.9567V26.0176H35.2961V58.9582H60.1269L60.1284 58.9567ZM47.7238 70.0359V69.9972C48.2295 69.9972 48.7353 70.0187 49.2395 69.9929C50.8549 69.9111 51.8722 68.8365 51.862 67.2453C51.8534 65.7374 50.7162 64.5595 49.1803 64.5135C48.1905 64.4834 47.1964 64.4791 46.2067 64.5193C44.9207 64.5724 43.6867 65.7862 43.5885 67.0358C43.4787 68.4319 44.3861 69.6629 45.7876 69.914C46.4191 70.0273 47.0779 69.9986 47.7238 70.0359Z" fill="#FAE2CB"/>
</g>
<defs>
<clipPath id="clip0_1010_1235">
<rect width="36" height="55" fill="white" transform="translate(29.7188 20.498)"/>
</clipPath>
</defs>
</svg>
