<svg width="61" height="61" viewBox="0 0 61 61" fill="none" xmlns="http://www.w3.org/2000/svg">
<circle cx="30.0625" cy="30.498" r="30" fill="#FAE2CB"/>
<g clip-path="url(#clip0_1010_1103)">
<path d="M41.2225 37.3808C42.4016 37.3489 43.4059 37.7092 44.2465 38.4969C45.01 39.2113 45.4273 40.1059 45.5554 41.147C45.5978 41.4917 45.4468 41.6994 45.1457 41.8106C45.4001 43.9729 44.4968 45.4837 42.7239 45.9146C41.3167 46.2594 39.314 45.5837 38.7643 43.2964C38.7465 43.2964 38.7202 43.2904 38.7117 43.2964C38.2138 43.8557 37.855 43.7919 37.5869 43.0921C37.5216 42.9198 37.4716 42.7474 37.4309 42.6233C37.1128 42.6578 36.8091 42.719 36.5046 42.7198C33.879 42.7273 31.2534 42.7273 28.6278 42.7198C28.3733 42.7198 28.2512 42.7448 28.2037 43.0646C27.9661 44.6434 26.5708 45.8035 24.9803 45.7888C24.2114 45.7853 23.4688 45.5036 22.8858 44.9943C22.3027 44.4849 21.9173 43.7813 21.7985 43.0094C21.7858 42.9232 21.7663 42.8422 21.7527 42.7715C21.4983 42.7216 21.2523 42.7009 21.0249 42.6242C20.0673 42.3027 19.5295 41.3659 19.6118 40.2179C19.6704 39.4341 19.8636 38.6667 20.1826 37.9505C20.4973 37.236 20.8612 36.5448 21.2217 35.851C21.2504 35.7997 21.29 35.7555 21.3375 35.7215C21.385 35.6875 21.4393 35.6647 21.4966 35.6546C23.9947 35.6451 26.4936 35.6477 28.9917 35.6494C29.0124 35.6527 29.0324 35.6594 29.051 35.6692C28.8873 37.2145 29.1181 38.0823 29.8467 38.5736C29.8755 38.1332 29.9052 37.7117 29.9315 37.286C30.0333 35.548 30.1351 33.8094 30.2369 32.0702C30.2674 31.5531 30.1181 31.3721 29.6058 31.3161C28.8381 31.2299 28.0705 31.1489 27.3037 31.0576C27.0921 31.0365 26.8873 30.9701 26.7028 30.8629C26.5183 30.7556 26.3583 30.6099 26.2332 30.4352C26.1081 30.2606 26.0208 30.061 25.9771 29.8497C25.9334 29.6383 25.9342 29.4199 25.9795 29.2089C26.4517 26.8739 26.9304 24.5401 27.4156 22.2074C27.6302 21.1732 28.4887 20.5588 29.4879 20.6803C30.3887 20.7889 31.0622 21.6102 31.0843 22.5987C31.0947 22.7523 31.1543 22.8982 31.2539 23.0141C32.1387 24.0138 33.3025 24.543 34.5129 24.9963C35.0865 25.2183 35.6977 25.3223 36.3112 25.3023C37.1357 25.2721 37.9619 25.2919 38.7881 25.2962C39.8221 25.3023 40.4277 25.915 40.4337 26.9578C40.4337 27.2802 40.4413 27.6033 40.4286 27.9257C40.4168 28.3118 40.26 28.6787 39.9905 28.9511C39.7209 29.2235 39.359 29.3808 38.9789 29.3908C38.6396 29.402 38.3063 29.3908 37.9254 29.3908C38.168 31.2135 38.5539 32.8976 40.0901 34.0584C41.0758 34.8039 41.4592 35.8252 41.2675 37.0636C41.2505 37.1576 41.2395 37.2524 41.2225 37.3808ZM34.8446 27.8283C33.2058 27.6394 31.6511 26.9913 30.354 25.9564C30.2293 26.5019 30.1088 26.9992 30.0019 27.4991C29.9171 27.9127 30.0121 28.0894 30.4057 28.2411C31.1273 28.518 31.8494 28.793 32.5721 29.0659C33.4857 29.4106 33.8377 29.9329 33.741 30.911C33.5315 33.0389 33.2991 35.1642 33.0777 37.2886C33.0149 37.8919 32.9555 38.4951 32.8945 39.1131H34.8454L34.8446 27.8283ZM41.9698 44.939C43.5993 44.9459 44.6986 43.2421 44.0353 41.7442C44.0022 41.6483 43.9419 41.5645 43.8621 41.5032C43.7823 41.4418 43.6865 41.4058 43.5866 41.3995C42.3303 41.2702 41.1462 41.4857 40.046 42.1346C39.9468 42.1852 39.8644 42.2643 39.8091 42.3621C39.7538 42.4598 39.7279 42.5719 39.7347 42.6845C39.7444 43.282 39.9834 43.8521 40.4007 44.2732C40.8181 44.6944 41.3808 44.9333 41.969 44.939H41.9698ZM22.8241 42.744C22.813 43.848 23.9115 44.8124 25.1084 44.7606C26.2247 44.7141 27.2663 43.7092 27.1824 42.744H22.8241Z" fill="#60340B"/>
<path d="M19.6503 22.2243C20.7932 22.2243 21.936 22.2243 23.0789 22.2243C24.0968 22.2243 24.727 22.8647 24.7279 23.8911C24.7279 25.7079 24.7279 27.5246 24.7279 29.3413C24.7279 30.3514 24.0934 30.9978 23.1035 30.9986C20.7963 30.9986 18.489 30.9986 16.1818 30.9986C15.2106 30.9986 14.5701 30.3479 14.565 29.3663C14.5617 27.5278 14.5617 25.6892 14.565 23.8506C14.565 22.8854 15.2106 22.2295 16.1581 22.2252C17.3218 22.22 18.4856 22.2243 19.6503 22.2243Z" fill="#60340B"/>
<path d="M29.2809 34.6132H27.8083C25.6394 34.6132 23.4696 34.6132 21.3006 34.6184C21.2075 34.6262 21.1141 34.6093 21.0293 34.5694C20.9446 34.5295 20.8715 34.468 20.8171 34.3909C20.4198 33.8823 20.1896 33.2598 20.1589 32.6112C20.1377 32.1682 20.3226 31.9648 20.7526 31.9648C23.398 31.9648 26.0437 31.9648 28.6897 31.9648C29.0519 31.9648 29.2665 32.126 29.2758 32.4552C29.2945 33.1585 29.2809 33.866 29.2809 34.6132Z" fill="#60340B"/>
<path d="M28.2871 17.5652C28.2923 16.8801 28.5649 16.2251 29.045 15.744C29.5252 15.263 30.1736 14.9952 30.848 14.9996C31.1822 15.0024 31.5125 15.0721 31.8202 15.2046C32.1279 15.3371 32.4069 15.53 32.6412 15.772C32.8755 16.0141 33.0606 16.3007 33.1859 16.6155C33.3112 16.9303 33.3743 17.2671 33.3715 17.6066C33.3628 18.2865 33.0909 18.9355 32.6146 19.4131C32.1383 19.8908 31.496 20.1585 30.8268 20.1585C30.4924 20.1578 30.1614 20.0902 29.8527 19.9594C29.5441 19.8287 29.2638 19.6375 29.028 19.3966C28.7921 19.1558 28.6053 18.8701 28.4781 18.5558C28.351 18.2416 28.2861 17.905 28.2871 17.5652Z" fill="#60340B"/>
</g>
<defs>
<clipPath id="clip0_1010_1103">
<rect width="31" height="31" fill="white" transform="translate(14.5625 14.998)"/>
</clipPath>
</defs>
</svg>
