<svg width="60" height="61" viewBox="0 0 60 61" fill="none" xmlns="http://www.w3.org/2000/svg">
<circle cx="30" cy="30.5371" r="30" fill="#FAE2CB"/>
<g clip-path="url(#clip0_1010_1245)">
<path d="M41.16 37.4199C42.3391 37.388 43.3434 37.7482 44.184 38.5359C44.9475 39.2504 45.3648 40.145 45.4929 41.1861C45.5353 41.5308 45.3843 41.7385 45.0832 41.8497C45.3376 44.012 44.4343 45.5228 42.6614 45.9537C41.2542 46.2984 39.2515 45.6227 38.7018 43.3355C38.684 43.3355 38.6577 43.3294 38.6492 43.3355C38.1513 43.8948 37.7925 43.831 37.5244 43.1312C37.4591 42.9588 37.4091 42.7865 37.3684 42.6624C37.0503 42.6968 36.7466 42.758 36.4421 42.7589C33.8165 42.7664 31.1909 42.7664 28.5653 42.7589C28.3108 42.7589 28.1887 42.7839 28.1412 43.1036C27.9036 44.6825 26.5083 45.8425 24.9178 45.8279C24.1489 45.8243 23.4063 45.5427 22.8233 45.0333C22.2402 44.524 21.8548 43.8203 21.736 43.0485C21.7233 42.9623 21.7038 42.8813 21.6902 42.8106C21.4358 42.7606 21.1898 42.7399 20.9624 42.6632C20.0048 42.3418 19.467 41.405 19.5493 40.257C19.6079 39.4731 19.8011 38.7057 20.1201 37.9895C20.4348 37.2751 20.7987 36.5839 21.1592 35.8901C21.1879 35.8388 21.2275 35.7945 21.275 35.7606C21.3225 35.7266 21.3768 35.7037 21.4341 35.6936C23.9322 35.6841 26.4311 35.6867 28.9292 35.6884C28.9499 35.6918 28.9699 35.6985 28.9885 35.7083C28.8248 37.2535 29.0556 38.1214 29.7842 38.6126C29.813 38.1722 29.8427 37.7508 29.869 37.3251C29.9708 35.587 30.0726 33.8484 30.1744 32.1093C30.2049 31.5922 30.0556 31.4112 29.5433 31.3552C28.7756 31.269 28.008 31.188 27.2412 31.0966C27.0296 31.0755 26.8248 31.0092 26.6403 30.9019C26.4558 30.7947 26.2958 30.6489 26.1707 30.4743C26.0456 30.2997 25.9583 30.1001 25.9146 29.8887C25.8709 29.6774 25.8717 29.459 25.917 29.248C26.3892 26.913 26.8679 24.5792 27.3531 22.2465C27.5677 21.2123 28.4262 20.5978 29.4254 20.7193C30.3262 20.8279 30.9997 21.6492 31.0218 22.6378C31.0322 22.7913 31.0918 22.9372 31.1914 23.0532C32.0762 24.0529 33.24 24.582 34.4504 25.0354C35.024 25.2574 35.6352 25.3614 36.2487 25.3413C37.0732 25.3112 37.8994 25.331 38.7256 25.3353C39.7596 25.3413 40.3652 25.9541 40.3712 26.9969C40.3712 27.3192 40.3788 27.6424 40.3661 27.9647C40.3543 28.3508 40.1975 28.7177 39.928 28.9902C39.6584 29.2626 39.2965 29.4199 38.9164 29.4298C38.5771 29.441 38.2438 29.4298 37.8629 29.4298C38.1055 31.2526 38.4914 32.9366 40.0276 34.0975C41.0133 34.843 41.3967 35.8643 41.205 37.1027C41.188 37.1966 41.177 37.2914 41.16 37.4199ZM34.7821 27.8673C33.1433 27.6784 31.5886 27.0303 30.2915 25.9955C30.1668 26.541 30.0463 27.0383 29.9394 27.5381C29.8546 27.9518 29.9496 28.1285 30.3432 28.2802C31.0648 28.5571 31.7869 28.832 32.5096 29.1049C33.4232 29.4497 33.7752 29.9719 33.6785 30.9501C33.469 33.078 33.2366 35.2032 33.0152 37.3276C32.9524 37.9309 32.893 38.5342 32.832 39.1521H34.7829L34.7821 27.8673ZM41.9073 44.9781C43.5368 44.985 44.6361 43.2812 43.9728 41.7833C43.9397 41.6874 43.8794 41.6035 43.7996 41.5422C43.7198 41.4809 43.624 41.4449 43.5241 41.4386C42.2678 41.3093 41.0837 41.5248 39.9835 42.1737C39.8843 42.2243 39.8019 42.3034 39.7466 42.4011C39.6913 42.4989 39.6654 42.611 39.6722 42.7236C39.6819 43.3211 39.9209 43.8912 40.3382 44.3123C40.7556 44.7334 41.3183 44.9723 41.9065 44.9781H41.9073ZM22.7616 42.783C22.7505 43.887 23.849 44.8514 25.0459 44.7997C26.1622 44.7532 27.2038 43.7483 27.1199 42.783H22.7616Z" fill="#60340B"/>
<path d="M19.5878 22.2634C20.7307 22.2634 21.8735 22.2634 23.0164 22.2634C24.0343 22.2634 24.6645 22.9037 24.6654 23.9302C24.6654 25.7469 24.6654 27.5637 24.6654 29.3804C24.6654 30.3905 24.0309 31.0368 23.041 31.0377C20.7338 31.0377 18.4265 31.0377 16.1193 31.0377C15.1481 31.0377 14.5076 30.387 14.5025 29.4054C14.4992 27.5668 14.4992 25.7282 14.5025 23.8897C14.5025 22.9244 15.1481 22.2686 16.0956 22.2643C17.2593 22.2591 18.4231 22.2634 19.5878 22.2634Z" fill="#60340B"/>
<path d="M29.2184 34.6523H27.7458C25.5769 34.6523 23.4071 34.6523 21.2381 34.6575C21.145 34.6652 21.0516 34.6484 20.9668 34.6085C20.8821 34.5686 20.809 34.5071 20.7546 34.43C20.3573 33.9213 20.1271 33.2989 20.0964 32.6503C20.0752 32.2073 20.2601 32.0039 20.6901 32.0039C23.3355 32.0039 25.9812 32.0039 28.6272 32.0039C28.9894 32.0039 29.204 32.1651 29.2133 32.4943C29.232 33.1975 29.2184 33.9051 29.2184 34.6523Z" fill="#60340B"/>
<path d="M28.2246 17.6048C28.2298 16.9197 28.5024 16.2646 28.9825 15.7836C29.4627 15.3025 30.1111 15.0348 30.7855 15.0391C31.1197 15.0419 31.45 15.1116 31.7577 15.2441C32.0654 15.3767 32.3444 15.5695 32.5787 15.8116C32.813 16.0537 32.9981 16.3403 33.1234 16.6551C33.2487 16.9698 33.3118 17.3066 33.309 17.6461C33.3003 18.326 33.0284 18.975 32.5521 19.4527C32.0758 19.9303 31.4335 20.1981 30.7643 20.198C30.4299 20.1973 30.0989 20.1297 29.7902 19.999C29.4816 19.8683 29.2013 19.677 28.9655 19.4362C28.7296 19.1953 28.5428 18.9096 28.4156 18.5954C28.2885 18.2811 28.2236 17.9445 28.2246 17.6048Z" fill="#60340B"/>
</g>
<defs>
<clipPath id="clip0_1010_1245">
<rect width="31" height="31" fill="white" transform="translate(14.5 15.0371)"/>
</clipPath>
</defs>
</svg>
