<svg width="30" height="32" viewBox="0 0 30 32" fill="none" xmlns="http://www.w3.org/2000/svg">
<g clip-path="url(#clip0_1010_1095)">
<path d="M26.0281 25.8124V28.0241C25.958 28.3081 25.9103 28.5999 25.8156 28.8755C25.2236 30.5937 23.7286 31.6468 21.8896 31.6506C17.0983 31.6506 12.307 31.6506 7.51565 31.6506C7.4048 31.6506 7.29472 31.6506 7.18386 31.6422C5.36942 31.5506 3.76051 30.1726 3.4726 28.382C3.35405 27.6392 3.39562 26.8701 3.38023 26.1126C3.36791 25.4968 3.68815 25.1889 4.30015 25.1889C7.99524 25.1889 11.6883 25.1889 15.3793 25.1889C15.6457 25.1854 15.9054 25.2732 16.1152 25.4375C16.8907 26.0251 17.6684 26.6092 18.4485 27.1896C18.547 27.2666 18.6471 27.3351 18.7487 27.409C19.6386 26.7385 20.5093 26.0849 21.3784 25.4283C21.5885 25.2641 21.8486 25.1771 22.1151 25.1819C23.0812 25.1889 24.0473 25.1989 25.0119 25.1819C25.5084 25.1681 25.851 25.3397 26.0281 25.8124Z" fill="#1D0605" fill-opacity="0.9"/>
<path d="M29.4923 5.37683C29.2614 6.25672 29.0304 7.13508 28.8072 8.01651C27.9773 11.3267 27.151 14.6369 26.3284 17.9471C26.2806 18.1411 26.2052 18.2034 26.0027 18.2034C18.4848 18.1978 10.9663 18.196 3.44728 18.198C3.38107 18.198 3.3141 18.1919 3.21634 18.1865C3.06237 17.5868 2.90841 16.9856 2.75984 16.3828C1.85916 12.7842 0.961047 9.18508 0.0654999 5.58545C0.00977727 5.40263 -0.00957539 5.21067 0.00853463 5.02041C0.113229 4.37376 0.859176 4.09663 1.39419 4.50694C2.24099 5.16513 3.07777 5.8441 3.91764 6.51538L7.51496 9.39447C8.02612 9.80324 8.10156 10.0527 7.89448 10.6662C7.75073 11.0735 7.76355 11.5197 7.93043 11.918C8.09731 12.3164 8.40635 12.6385 8.79746 12.8217C9.17927 13.001 9.61336 13.0351 10.0185 12.9175C10.4236 12.7999 10.772 12.5387 10.9984 12.1827C11.2288 11.8233 11.3183 11.3915 11.2499 10.9701C11.1814 10.5487 10.9597 10.1674 10.6273 9.89947C10.1215 9.47915 10.0515 9.15429 10.3432 8.56923C11.5236 6.20232 12.7055 3.83464 13.889 1.46619C14.0691 1.10284 14.3147 0.841104 14.7358 0.840334C15.1569 0.839564 15.4078 1.09745 15.5887 1.46157C16.7691 3.83105 17.9508 6.19847 19.1337 8.56384C19.427 9.15121 19.3562 9.48762 18.8574 9.89639C18.5237 10.1635 18.3009 10.5448 18.2319 10.9667C18.163 11.3885 18.2528 11.8209 18.484 12.1804C18.7091 12.5371 19.0566 12.7996 19.4613 12.9186C19.866 13.0376 20.3002 13.0051 20.6826 12.8271C21.0699 12.6477 21.3776 12.3321 21.547 11.9403C21.7164 11.5486 21.7356 11.1082 21.601 10.7031C21.3846 10.0334 21.447 9.82172 21.9859 9.386C23.9643 7.80173 25.9429 6.21849 27.9219 4.63627C28.5816 4.10895 29.1066 4.22442 29.4923 4.97499V5.37683Z" fill="#1D0605" fill-opacity="0.9"/>
<path d="M3.45605 19.9526H26.0277V20.2467C26.0277 20.9572 26.0277 21.6678 26.0277 22.3783C26.0277 23.0658 25.6882 23.4037 25 23.4037H4.52302C3.78015 23.4037 3.45991 23.0788 3.45914 22.326C3.45914 21.6347 3.45914 20.9436 3.45914 20.2529L3.45605 19.9526Z" fill="#1D0605" fill-opacity="0.9"/>
</g>
<defs>
<clipPath id="clip0_1010_1095">
<rect width="29.4922" height="30.8086" fill="white" transform="translate(0 0.84375)"/>
</clipPath>
</defs>
</svg>
