<svg width="61" height="61" viewBox="0 0 61 61" fill="none" xmlns="http://www.w3.org/2000/svg">
<circle cx="30.0625" cy="30.498" r="30" fill="#FAE2CB"/>
<g clip-path="url(#clip0_1010_1113)">
<path d="M30.9251 14.9979C31.5833 15.0972 32.2544 15.1443 32.8982 15.3012C38.5938 16.7073 42.1132 20.2755 43.4752 25.9559C43.5698 26.3895 43.6359 26.8288 43.6731 27.2709C43.7187 27.7017 43.7286 28.1355 43.7583 28.6413C43.6267 28.5449 43.4886 28.4575 43.3451 28.3797C42.9403 28.1992 42.5355 28.0157 42.1192 27.8685C41.9404 27.8056 41.8643 27.7404 41.8461 27.5455C41.6667 25.4854 40.9373 23.5107 39.7337 21.8264C38.3788 19.8941 36.4688 18.4157 34.2549 17.5855C32.5477 16.9293 30.7084 16.687 28.8888 16.8787C26.5865 17.098 24.4029 17.9995 22.6194 19.4671C20.7048 21.0036 19.3256 23.1032 18.6785 25.4667C18.4852 26.1493 18.419 26.872 18.2843 27.5743C18.2668 27.666 18.2082 27.7919 18.1321 27.8238C17.563 28.0688 16.9854 28.294 16.3584 28.5465C16.4345 27.8215 16.4581 27.0563 16.6027 26.3138C17.5287 21.5466 20.224 18.146 24.6473 16.1211C26.0059 15.5092 27.4636 15.1455 28.9512 15.0472C29.0406 15.0352 29.1293 15.018 29.2168 14.9956L30.9251 14.9979Z" fill="#60340B"/>
<path d="M32.6407 42.3556C33.6832 42.3556 34.7173 42.3943 35.7469 42.345C36.8723 42.2912 37.8471 41.4759 38.0913 40.5249C37.6348 40.5037 37.1508 40.5545 36.7057 40.449C35.4516 40.1457 34.6511 39.1264 34.6382 37.8311C34.6161 35.3686 34.6032 32.9061 34.6382 30.4443C34.6709 28.27 36.921 27.0316 38.7891 28.1343C39.6581 28.647 40.0827 29.4592 40.0903 30.4542C40.104 33.5636 40.1208 36.673 40.0842 39.7824C40.0561 42.1774 38.0738 44.1227 35.6708 44.1811C34.7394 44.2038 33.808 44.1917 32.8766 44.1811C32.6978 44.1811 32.6148 44.2387 32.5395 44.3987C31.9863 45.5879 30.7452 46.2075 29.4866 45.9352C28.2729 45.6728 27.3864 44.5952 27.3423 43.3294C27.2997 42.0879 28.1847 40.9503 29.4433 40.6295C30.6326 40.3262 31.9544 40.9443 32.5007 42.0576C32.5494 42.1585 32.5943 42.257 32.6407 42.3556Z" fill="#60340B"/>
<path d="M25.5167 34.1634C25.5167 35.3541 25.5227 36.5447 25.5167 37.7346C25.509 38.9723 24.7816 40.028 23.7117 40.3776C21.874 40.9768 20.0911 39.7664 20.0592 37.8393C20.0206 35.3685 20.0206 32.8969 20.0592 30.4245C20.0972 28.2646 22.3336 27.0375 24.1972 28.1273C25.1012 28.6582 25.506 29.5 25.5136 30.5314C25.5235 31.7426 25.5167 32.953 25.5167 34.1634Z" fill="#60340B"/>
<path d="M18.2593 29.7207V38.5605C17.5379 38.3178 16.9916 37.8613 16.6933 37.1711C16.5273 36.7834 16.4347 36.3684 16.4201 35.9471C16.3851 34.7382 16.4011 33.5271 16.4094 32.3174C16.4148 31.0858 17.1711 30.0241 18.2593 29.7207Z" fill="#60340B"/>
<path d="M41.8936 38.5454V29.7056C42.4491 29.8833 42.9287 30.2417 43.2556 30.7233C43.5792 31.1799 43.7499 31.7267 43.7434 32.2856C43.7434 33.5157 43.7533 34.7458 43.7434 35.9759C43.7305 37.1916 42.9733 38.2329 41.8936 38.5454Z" fill="#60340B"/>
</g>
<defs>
<clipPath id="clip0_1010_1113">
<rect width="27.3953" height="31" fill="white" transform="translate(16.3652 14.998)"/>
</clipPath>
</defs>
</svg>
