<svg width="60" height="61" viewBox="0 0 60 61" fill="none" xmlns="http://www.w3.org/2000/svg">
<circle cx="30" cy="30.5371" r="30" fill="#FAE2CB"/>
<g clip-path="url(#clip0_1010_1273)">
<path d="M16.5 31.5938H18.5549L19.6967 25.9141H17.6416L16.5 31.5938ZM17.7548 25.2367H19.8183L20.1574 23.5373H18.0947L17.7548 25.2367ZM19.3541 33.192H21.4092L22.6648 27.0557H24.206L24.4333 25.9141H22.9216L22.9789 25.6573C23.0644 25.1732 23.2357 24.6297 24.0062 24.6297C24.4634 24.6297 24.8912 24.6582 25.3191 24.858L25.5477 23.6594C25.0709 23.4912 24.5691 23.4043 24.0635 23.4023C22.408 23.4023 21.2667 24.3729 20.8383 25.9141H20.1248L19.8965 27.0557H20.61L19.3541 33.192Z" fill="#60340B"/>
<path d="M25.8617 31.7079C28.2877 31.7079 29.9717 29.51 29.9717 27.712C29.9717 26.3706 28.7443 25.7997 27.5457 25.7997C24.8906 25.7997 23.4357 28.17 23.4357 29.7956C23.4357 31.137 24.6916 31.7079 25.8617 31.7079ZM32.3697 31.7079C34.7956 31.7079 36.4796 29.51 36.4796 27.712C36.4796 26.3706 35.2238 25.7997 34.0249 25.7997C31.3706 25.7997 29.9152 28.1686 29.9152 29.7956C29.9152 31.137 31.1996 31.7079 32.3697 31.7079ZM39.8189 31.5936H41.8452L43.5002 23.5176H41.4453L40.9599 25.915L40.1037 25.8295C38.1058 25.8295 36.2793 28.398 36.2793 30.2248C36.2793 30.9668 36.7634 31.709 37.5922 31.709C38.7623 31.709 39.59 31.1381 39.9318 30.5672H40.0459L39.8189 31.5936ZM33.4822 35.8464C31.8872 37.168 29.8385 37.8133 27.774 37.6444C25.0625 37.4731 23.1216 35.3895 22.7793 33.1919H22.8933C23.5213 34.5634 25.034 35.8464 26.8893 36.046C28.7717 36.2743 31.0277 35.4183 32.2548 34.2479L30.8849 33.1919H35.0234L34.1091 37.5874L33.5096 35.8749L33.4822 35.8464Z" fill="#60340B"/>
</g>
<defs>
<clipPath id="clip0_1010_1273">
<rect width="27" height="14.2686" fill="white" transform="translate(16.5 23.4023)"/>
</clipPath>
</defs>
</svg>
