<svg width="60" height="61" viewBox="0 0 60 61" fill="none" xmlns="http://www.w3.org/2000/svg">
<circle cx="30" cy="30.5371" r="30" fill="#FAE2CB"/>
<g clip-path="url(#clip0_1010_1257)">
<path d="M30.5987 14.0371C30.8892 14.0996 31.1844 14.148 31.4702 14.2266C33.5565 14.8002 34.9059 16.1247 35.6768 18.0893C33.1634 18.563 31.2963 19.8753 29.9983 22.0138C28.7036 19.8759 26.8372 18.5617 24.3311 18.0893C24.8881 16.565 25.853 15.3958 27.3296 14.6926C27.9746 14.3858 28.7069 14.2504 29.3992 14.0371C29.799 14.0371 30.1989 14.0371 30.5987 14.0371Z" fill="#60340B"/>
<path d="M23.7342 47.0369C23.5816 46.9357 23.4091 46.8532 23.2805 46.7288C22.9073 46.3673 22.8966 45.811 23.2691 45.4211C23.6603 45.0118 24.0694 44.6167 24.4945 44.2409C24.5732 44.1713 24.7804 44.1816 24.9023 44.2242C26.1924 44.6721 27.5177 44.9493 28.885 45.0556C31.008 45.2206 33.0643 44.9306 35.0587 44.2274C35.3239 44.134 35.4778 44.1726 35.6557 44.3641C35.9149 44.6431 36.2008 44.8984 36.4753 45.1639C37.2463 45.9083 37.1783 46.5084 36.2621 47.0376H23.7342V47.0369Z" fill="#60340B"/>
<path d="M42.2607 14.0371C42.324 14.0751 42.3853 14.1157 42.4506 14.1505C43.0283 14.458 43.1969 15.1567 42.7458 15.6246C41.8395 16.5656 40.8973 17.4744 39.9631 18.3896C39.9112 18.4405 39.7865 18.4586 39.7059 18.4425C39.1222 18.3252 38.5405 18.1976 37.9601 18.0661C37.8735 18.0461 37.7955 17.9894 37.7129 17.9494C37.7569 17.8695 37.7842 17.7747 37.8468 17.7129C38.9769 16.5933 40.1091 15.4751 41.2492 14.3639C41.3844 14.2318 41.567 14.1447 41.7276 14.0371H42.2607V14.0371Z" fill="#60340B"/>
<path d="M17.4004 33.4482H33.1634C33.7397 34.6954 34.7106 35.4257 36.1646 35.3567C37.4553 35.2955 38.3142 34.5871 38.8186 33.4495H42.5807C41.7758 37.5275 37.5605 42.8487 30.5773 43.1517C23.552 43.4565 18.4999 38.4318 17.4004 33.4482Z" fill="#60340B"/>
<path d="M42.9634 25.7033C42.2697 25.7033 41.5734 25.6968 40.8778 25.7059C40.402 25.7117 39.9176 25.691 39.4518 25.7671C38.0318 25.9978 37.0143 27.1722 36.9997 28.5708C36.9857 29.8592 37.003 31.1476 36.993 32.4354C36.987 33.196 36.2294 33.6613 35.5544 33.33C35.1712 33.1418 34.9966 32.8254 34.9966 32.4135C34.9966 31.2005 34.998 29.9875 34.9966 28.7738C34.9946 26.9318 33.7273 25.7065 31.8242 25.7039C31.5603 25.7039 31.2964 25.7039 30.9893 25.7039C31.0692 23.6376 31.9188 21.9914 33.6873 20.8816C35.7729 19.5732 37.9532 19.5442 40.1028 20.7507C42.1158 21.8806 43.052 24.034 42.9627 25.7039L42.9634 25.7033Z" fill="#60340B"/>
<path d="M32.998 31.5035H32.5782C27.1361 31.5035 21.6935 31.5035 16.2515 31.5035C15.3599 31.5035 15.0034 31.1587 15.0054 30.2931C15.0061 29.9605 14.9821 29.6228 15.0301 29.296C15.1753 28.3041 16.0069 27.6389 17.0797 27.6376C20.2675 27.6344 23.4546 27.6363 26.6424 27.6363C28.3749 27.6363 30.1074 27.6363 31.8405 27.6363C32.6021 27.6363 32.996 28.0121 32.9973 28.7391C32.9993 29.6492 32.9973 30.5599 32.9973 31.5029L32.998 31.5035Z" fill="#60340B"/>
<path d="M29.0164 25.6903H17.001C17.0536 23.8012 17.7959 22.2401 19.3538 21.1141C21.3449 19.6749 23.5265 19.4699 25.7414 20.5598C27.861 21.6027 28.8852 23.3732 29.0164 25.6903Z" fill="#60340B"/>
<path d="M38.9982 31.5015C38.9982 30.4838 38.9835 29.5073 39.0042 28.5321C39.0149 28.0371 39.4473 27.6478 39.9677 27.642C41.0112 27.6298 42.056 27.6208 43.0995 27.6459C44.1024 27.6697 44.9293 28.4709 44.9853 29.4396C45.0073 29.8147 45.0026 30.1918 44.9886 30.5669C44.9693 31.0709 44.5768 31.4912 44.0637 31.4957C42.3886 31.5118 40.7134 31.5021 38.9982 31.5021V31.5015Z" fill="#60340B"/>
</g>
<defs>
<clipPath id="clip0_1010_1257">
<rect width="30" height="33" fill="white" transform="translate(15 14.0371)"/>
</clipPath>
</defs>
</svg>
