<svg width="24" height="25" viewBox="0 0 24 25" fill="none" xmlns="http://www.w3.org/2000/svg">
<path d="M19.5052 5.48857C17.5011 3.51982 14.8321 2.43701 11.9956 2.43701C6.14104 2.43701 1.37701 7.10576 1.37701 12.8433C1.37701 14.6761 1.8649 16.4667 2.79283 18.0464L1.28613 23.437L6.91592 21.9886C8.46566 22.8183 10.2115 23.2542 11.9909 23.2542H11.9956C17.8454 23.2542 22.7147 18.5854 22.7147 12.8479C22.7147 10.0683 21.5093 7.45732 19.5052 5.48857ZM11.9956 21.5011C10.4076 21.5011 8.8531 21.0839 7.49946 20.2964L7.17899 20.1089L3.84034 20.9667L4.73001 17.7745L4.51955 17.4464C3.63467 16.0683 3.1707 14.4792 3.1707 12.8433C3.1707 8.07607 7.13116 4.19482 12.0004 4.19482C14.3585 4.19482 16.5731 5.09482 18.2377 6.73076C19.9022 8.3667 20.9258 10.537 20.921 12.8479C20.921 17.6198 16.8601 21.5011 11.9956 21.5011ZM16.8362 15.0229C16.5731 14.8917 15.2673 14.2636 15.0234 14.1792C14.7794 14.0901 14.6025 14.0479 14.4255 14.3104C14.2485 14.5729 13.7415 15.1542 13.5836 15.3323C13.4306 15.5058 13.2727 15.5292 13.0097 15.3979C11.4504 14.6339 10.4268 14.0339 9.39838 12.3042C9.12574 11.8448 9.67102 11.8776 10.178 10.8839C10.2641 10.7104 10.2211 10.5604 10.1541 10.4292C10.0872 10.2979 9.55622 9.01826 9.3362 8.49795C9.12095 7.9917 8.90093 8.06201 8.7383 8.05264C8.58524 8.04326 8.40826 8.04326 8.23129 8.04326C8.05431 8.04326 7.76732 8.10889 7.52338 8.3667C7.27944 8.6292 6.59544 9.25732 6.59544 10.537C6.59544 11.8167 7.54729 13.0542 7.67644 13.2276C7.81037 13.4011 9.54666 16.0261 12.2109 17.1558C13.8946 17.8683 14.5546 17.9292 15.3965 17.8073C15.9083 17.7323 16.9653 17.1792 17.1854 16.5698C17.4054 15.9604 17.4054 15.4401 17.3384 15.3323C17.2762 15.2151 17.0993 15.1495 16.8362 15.0229Z" fill="#34201F"/>
</svg>
