<svg width="60" height="61" viewBox="0 0 60 61" fill="none" xmlns="http://www.w3.org/2000/svg">
<circle cx="30" cy="30.5371" r="30" fill="#FAE2CB"/>
<g clip-path="url(#clip0_1010_1282)">
<path d="M29.3572 15.5371H31.1737C31.5394 15.5824 31.9076 15.6191 32.2722 15.673C36.2049 16.2568 39.4404 18.0816 41.8966 21.2111C44.2942 24.2671 45.2911 27.7662 44.9266 31.6313C44.6783 34.2639 43.7596 36.6664 42.1658 38.7788C39.3609 42.4982 35.6104 44.5115 30.9633 44.7795C28.3602 44.9301 25.882 44.3756 23.5529 43.1885C23.3743 43.0979 23.2202 43.082 23.0269 43.1444C20.5853 43.9277 18.1413 44.6987 15.7009 45.4845C15.4159 45.5763 15.1908 45.5616 15 45.3217V45.028C15.0379 44.9399 15.0832 44.8542 15.1138 44.7636C15.8905 42.4749 16.6636 40.185 17.4477 37.8988C17.5272 37.6675 17.5174 37.4839 17.3939 37.2685C16.4703 35.6579 15.9015 33.9224 15.6606 32.0866C15.3266 29.5286 15.6018 27.0294 16.6318 24.6588C18.7566 19.773 22.4618 16.8173 27.6838 15.7733C28.2355 15.6632 28.7994 15.6142 29.3572 15.5371ZM19.6177 41.0173C19.7511 40.9806 19.833 40.961 19.9138 40.9353C21.0294 40.5816 22.1462 40.234 23.2569 39.8693C23.548 39.7738 23.7865 39.7885 24.0544 39.9586C25.5089 40.8827 27.0966 41.4432 28.8067 41.6586C30.9193 41.9254 32.956 41.6317 34.9046 40.7909C36.8838 39.9378 38.5107 38.627 39.7694 36.872C40.9792 35.1854 41.696 33.3055 41.8869 31.2408C42.1266 28.6352 41.5407 26.2131 40.1315 24.0089C38.5242 21.495 36.2648 19.8354 33.3976 19.0191C31.219 18.3986 29.0367 18.4341 26.8752 19.0925C24.7639 19.7351 22.967 20.8855 21.504 22.5451C19.8453 24.4274 18.8752 26.6231 18.6514 29.1174C18.4031 31.8907 19.0758 34.445 20.6758 36.7361C20.8691 37.0127 20.9034 37.2661 20.792 37.5818C20.3969 38.7029 20.0214 39.8313 19.619 41.0161L19.6177 41.0173Z" fill="#60340B"/>
<path d="M34.2885 37.2002C33.4445 37.1978 32.631 36.9604 31.8176 36.7144C28.5601 35.7304 26.2555 33.5482 24.3656 30.8287C23.7026 29.874 23.1265 28.8815 22.9491 27.7151C22.7742 26.5597 22.9589 25.4644 23.6084 24.4657C24.0378 23.8035 24.6836 23.5331 25.4176 23.4058C25.6378 23.3678 25.8616 23.3421 26.0843 23.3152C26.5418 23.2589 26.9161 23.4278 27.102 23.8403C27.5619 24.8622 27.9962 25.8952 28.417 26.9343C28.5968 27.3773 28.3497 27.7567 28.1112 28.1018C27.9008 28.4054 27.6341 28.6697 27.4115 28.9647C27.3589 29.0344 27.3332 29.196 27.376 29.2572C28.5589 30.9351 29.9827 32.3353 31.8995 33.1675C32.1075 33.2581 32.2286 33.2299 32.3656 33.05C32.6604 32.6621 32.9797 32.2912 33.2843 31.9106C33.6965 31.3953 34.0268 31.3072 34.6384 31.5789C35.1729 31.8164 35.7026 32.0636 36.231 32.3157C36.6445 32.5127 37.0506 32.7257 37.4616 32.9264C37.7846 33.0843 37.924 33.3376 37.9399 33.6975C38.0439 35.9139 36.2335 37.0301 34.6824 37.177C34.5564 37.1892 34.4292 37.1929 34.2873 37.2015L34.2885 37.2002Z" fill="#60340B"/>
</g>
<defs>
<clipPath id="clip0_1010_1282">
<rect width="30" height="30" fill="white" transform="translate(15 15.5371)"/>
</clipPath>
</defs>
</svg>
